<?xml version="1.0" standalone="no"?>
<!DOCTYPE svg PUBLIC "-//W3C//DTD SVG 20010904//EN"
 "http://www.w3.org/TR/2001/REC-SVG-20010904/DTD/svg10.dtd">
<svg version="1.0" xmlns="http://www.w3.org/2000/svg"
 width="512.000000pt" height="512.000000pt" viewBox="0 0 512.000000 512.000000"
 preserveAspectRatio="xMidYMid meet">

<g transform="translate(0.000000,512.000000) scale(0.100000,-0.100000)"
fill="#000000" stroke="none">
<path d="M2485 5101 c-22 -11 -78 -54 -125 -96 -278 -253 -586 -423 -946 -525
-205 -58 -514 -99 -742 -100 -142 -1 -192 -23 -235 -105 -21 -39 -21 -50 -21
-740 -1 -758 2 -820 60 -1185 181 -1138 798 -1877 1923 -2301 167 -63 165 -63
404 32 324 128 635 305 874 498 130 105 337 319 438 453 271 360 442 788 530
1328 56 346 60 419 59 1175 0 698 0 700 -22 742 -26 50 -62 80 -111 92 -20 5
-110 12 -201 15 -647 22 -1180 227 -1610 621 -125 114 -189 136 -275 96z m932
-1877 c65 -69 119 -130 121 -134 2 -5 -252 -248 -563 -542 -575 -541 -619
-578 -690 -578 -72 1 -102 27 -390 346 -153 170 -286 318 -296 329 -18 20 -15
23 114 137 73 64 135 118 139 120 4 1 104 -105 223 -237 119 -132 222 -241
228 -242 7 -1 230 207 497 462 267 255 488 464 492 464 3 1 59 -56 125 -125z"/>
</g>
</svg>
